
		<svg width="3181.8196264960047" height="3239.612892880397" xmlns="http://www.w3.org/2000/svg" xmlns:xlink="http://www.w3.org/1999/xlink" version="1.1">
            <g transform="scale(11.98064464401984) translate(10, 10)">
				<g id="main_text" rel="mainfill" name="main_text" xmlns:name="mainText_mainfill" fill="#ffffff" transform="translate(47.449100494384766, 82.84329666982374)"><path d="M13.92 22.448 c6.3407 0 9.9851 5.3568 9.9851 9.7661 c0 4.6644 -3.6441 9.839 -9.9847 9.839 l-7.2517 0 l0 8.928 c0 0.40085 -0.21829 0.61913 -0.58305 0.61913 l-2.9517 0 c-0.36441 0 -0.58305 -0.21829 -0.58305 -0.61913 l0 -27.95 c0 -0.32797 0.21864 -0.58305 0.58305 -0.58305 l10.786 0 z M13.593 38.081 c4.0085 0 6.2314 -2.9517 6.2314 -5.8669 c0 -2.8788 -2.2229 -5.7941 -6.2314 -5.7941 l-6.9237 0 l0 11.661 l6.9237 0 z M39.938305084745764 34.473 c0.40085 0.25508 0.51017 0.47336 0.25473 0.87421 l-1.4937 2.1864 c-0.1822 0.25508 -0.43729 0.32797 -0.76525 0.25508 c-0.76525 -0.36441 -1.4212 -0.69237 -2.6237 -0.69237 s-3.0975 0.51017 -4.1178 2.7695 l0 11.151 c0 0.32761 -0.21864 0.58269 -0.54661 0.58269 l-2.8788 0 c-0.32797 0 -0.54661 -0.25508 -0.54661 -0.58269 l0 -16.872 c0 -0.32761 0.25508 -0.58305 0.54661 -0.58305 l2.0042 0 c0.87458 0 1.4212 0.91102 1.4212 1.5669 l0 0.25544 c1.2754 -1.1661 2.8059 -1.9678 4.8102 -1.9678 c1.8585 0 3.2432 0.58305 3.9356 1.0568 z M51.89108474576271 51.85508 c5.1017 0 9.3288 -4.0446 9.3288 -9.2556 c0 -5.3203 -4.2271 -9.2924 -9.3288 -9.2924 s-9.3288 3.972 -9.3288 9.2924 c0 5.211 4.2271 9.2556 9.3288 9.2556 z M51.89108474576271 48.1385 c-3.1339 0 -5.4661 -2.5873 -5.4661 -5.5025 c0 -3.0246 2.3322 -5.6119 5.4661 -5.6119 s5.4661 2.5873 5.4661 5.6119 c0 2.9153 -2.3322 5.5025 -5.4661 5.5025 z M75.86896610169491 50.4343 c0.10932 0.29153 -0.10896 0.473 -0.36405 0.6552 c-0.61949 0.40085 -1.9678 0.69237 -3.3161 0.69237 c-3.8992 0 -5.3203 -2.0042 -5.3203 -6.7051 l0 -7.689 l-2.15 0 c-0.32797 0 -0.58305 -0.21864 -0.58305 -0.58305 l0 -0.61949 c0 -0.29153 0.072881 -0.50981 0.29153 -0.72881 c2.1136 -1.7127 3.7898 -3.4979 5.2475 -7.1788 c0.10932 -0.25508 0.21864 -0.40085 0.40085 -0.40085 l0.40085 0 c0.29153 0 0.40085 0.14576 0.40085 0.47373 l0 5.211 l3.8263 0 c0.32797 0 0.61949 0.25544 0.61949 0.61986 l0 2.6237 c0 0.32797 -0.29153 0.58305 -0.61949 0.58305 l-3.1703 0 c-0.29153 0 -0.54661 -0.036441 -0.69237 -0.10932 l0 7.4339 c0 2.1136 0.25508 3.3161 2.0407 3.3161 c0.76525 0 1.2754 -0.10932 1.7127 -0.21864 s0.72881 0.072881 0.80169 0.47409 z M96.13055932203389 33.562 c0.32797 0 0.54661 0.25544 0.54661 0.61986 l0 16.836 c0 0.32761 -0.21864 0.58269 -0.51017 0.58269 l-2.2593 0 c-0.61949 0 -1.1297 -0.91065 -1.1661 -1.5301 l0 -0.40085 c-1.4212 1.0932 -3.3525 2.1496 -5.8305 2.1496 c-3.7534 0 -7.5068 -2.3683 -7.5068 -6.9234 l0 -8.0534 c0 -0.9839 -0.072881 -1.7492 -0.1822 -2.5144 c-0.072881 -0.40085 0.036441 -0.76525 0.36441 -0.76525 l2.3686 0 c0.91102 0 1.4212 0.61949 1.4212 1.4576 l0 9.511 c0 2.4051 1.6398 3.7534 4.0814 3.7534 c2.0771 0 3.7898 -1.1661 5.2839 -2.6602 l0 -11.442 c0 -0.36441 0.21864 -0.61986 0.54625 -0.61986 l2.8427 0 z M100.43015593220339 48.976600000000005 l1.2386 -1.9674 c0.25508 -0.40121 0.47373 -0.51053 0.83814 -0.32832 c0.036441 0.072881 2.2593 1.3847 4.7008 1.3847 c2.1136 0 2.8424 -0.83814 2.8424 -1.6763 c0 -1.239 -1.3483 -1.6759 -3.7898 -2.2954 c-3.4619 -0.91102 -5.7576 -2.6966 -5.7576 -5.4661 c0 -2.7331 2.3322 -5.2839 6.7051 -5.2839 c2.6602 0 4.4822 0.91102 5.9398 1.7492 c0.36441 0.21864 0.54661 0.54661 0.32797 0.83814 l-1.3483 2.0771 c-0.1822 0.29153 -0.47373 0.40085 -0.80169 0.29153 c-0.94746 -0.47336 -2.478 -1.1661 -4.1178 -1.1661 c-2.0407 0 -2.5873 1.0203 -2.5873 1.6398 c0 1.0568 1.5305 1.5669 3.389 2.0768 c3.2436 0.87458 6.4868 2.4415 6.4868 5.6119 c0 3.061 -2.9149 5.3929 -7.2881 5.3929 c-2.9881 0 -5.6847 -1.4573 -6.5958 -2.1861 c-0.25508 -0.14576 -0.32797 -0.51017 -0.1822 -0.69237 z M146.12644067796612 53.2763 c0.43729 0.36441 0.25473 0.83814 -0.036441 1.0203 l-2.1864 1.3483 c-0.76525 0.47336 -1.5669 0.29153 -2.0042 -0.43729 l-2.7331 -4.5551 c-1.822 0.76525 -3.8263 1.2022 -5.9034 1.2022 c-8.272 0 -14.941 -6.5225 -14.941 -14.867 c0 -8.2356 6.6686 -14.795 14.941 -14.795 c8.1992 0 14.868 6.5593 14.868 14.795 c0 4.6644 -2.0771 8.7822 -5.3932 11.479 l1.3847 2.2958 c0.91102 1.4212 1.4576 2.0407 2.0042 2.5144 z M122.4399406779661 36.988 c0 5.2839 3.8263 9.7297 8.8186 10.677 l-0.1822 -0.036441 c-1.0568 -0.76489 -1.5305 -1.8585 -1.5305 -3.0246 c0 -2.4415 2.0042 -4.4458 4.7737 -4.4458 c1.9678 0 3.4983 0.76525 4.9924 2.8059 c0.43729 0.61949 0.83814 1.2754 1.2754 1.9678 c2.1136 -2.0042 3.4619 -4.8466 3.4619 -7.9441 c0 -5.903 -4.9195 -10.823 -10.786 -10.823 c-5.9034 0 -10.823 4.9195 -10.823 10.823 z M133.2624406779661 47.8838 c1.3119 0 2.5873 -0.25473 3.7534 -0.69201 l-0.72881 -1.239 c-0.76525 -1.239 -1.6034 -1.7495 -2.8059 -1.7495 c-1.1297 0 -2.0403 0.94746 -2.0403 2.1136 c0 0.54697 0.29153 1.1297 0.91065 1.5305 c0.29153 0.036441 0.61949 0.036441 0.91102 0.036441 z"/></g><g id="slogan_text" rel="mainfill" name="slogan_text" xmlns:name="sloganText_mainfill" fill="#ffffff" transform="translate(94.79682978987694, 129.40300431142532)"><path d="M0.55664 23.632815 q-0.0390625 0.17578125 -0.302734375 0.205078125 q-0.2734375 -0.009765625 -0.2734375 -0.302734375 q0 -0.76171875 -0.0341796875 -1.538085938 t0.043945 -1.5381 l0 -0.0097656 q0 -0.224609375 0.0048828125 -0.439453125 t-0.014648 -0.41992 l-0.078125 -0.74219 q-0.029296875 -0.3125 0.09765625 -0.673828125 q0.09765625 -0.25390625 0.263671875 -0.302734375 q0.13671875 -0.029296875 0.283203125 0.13671875 q0.13671875 0.146484375 0.205078125 0.25390625 q0.126953125 0.185546875 0.2587890625 0.33203125 t0.25879 0.27344 q0.107421875 0.126953125 0.2197265625 0.2197265625 t0.21973 0.20996 q0.09765625 0.09765625 0.21484375 0.2490234375 t0.25391 0.35645 l0.42969 0.66406 q0.048828125 0.068359375 0.1025390625 0.15625 t0.13184 0.20508 l0.0097656 0.0097656 q0.205078125 0.2734375 0.4296875 0.517578125 q0.107421875 0.1171875 0.21484375 0.2197265625 t0.22461 0.20996 q0.107421875 0.126953125 0.25390625 0.078125 q0.224609375 -0.05859375 0.21484375 -0.44921875 q0 -0.09765625 -0.0146484375 -0.205078125 t-0.014648 -0.21484 q-0.009765625 -0.078125 -0.01953125 -0.1513671875 t-0.0097656 -0.16113 q0 -0.0390625 -0.0048828125 -0.087890625 t-0.0048828 -0.10742 q0.0390625 -0.859375 -0.05859375 -1.6015625 q-0.009765625 -0.048828125 -0.009765625 -0.1611328125 t0.019531 -0.28809 q0.009765625 -0.21484375 0.05859375 -0.458984375 q0.029296875 -0.3515625 0.3125 -0.3515625 q0.3125 0 0.3125 0.37109375 q0.009765625 0.302734375 0.0244140625 0.6103515625 t0.014648 0.61035 q0.009765625 0.44921875 -0.01953125 0.8984375 t-0.0097656 0.89844 q0.01953125 0.302734375 0.0146484375 0.595703125 t-0.014648 0.58594 q0 0.166015625 0.0048828125 0.3271484375 t0.0048828 0.30762 l0 0.39063 q-0.009765625 0.05859375 -0.0146484375 0.1171875 t-0.0048828 0.10742 q-0.009765625 0.009765625 -0.009765625 0.01953125 t-0.0097656 0.0097656 q-0.107421875 0.146484375 -0.33203125 0.146484375 q-0.263671875 0.01953125 -0.400390625 -0.166015625 q-0.146484375 -0.185546875 -0.2685546875 -0.400390625 t-0.26855 -0.41992 q-0.17578125 -0.234375 -0.3857421875 -0.5029296875 t-0.46387 -0.57129 q-0.09765625 -0.107421875 -0.2734375 -0.390625 l-0.3418 -0.54688 q-0.126953125 -0.1953125 -0.25390625 -0.3955078125 t-0.26367 -0.38574 q-0.05859375 -0.068359375 -0.126953125 -0.1513671875 t-0.14648 -0.1416 t-0.17578 -0.087891 t-0.19531 0 q-0.263671875 0.078125 -0.244140625 0.537109375 q0.009765625 0.33203125 0.0146484375 0.625 t0.024414 0.54688 q0.01953125 0.205078125 -0.0048828125 0.41015625 t-0.024414 0.40039 l0 0.76172 q0 0.244140625 -0.0146484375 0.439453125 t-0.03418 0.35156 z M11.982434375 17.724575 q0.29296875 -0.009765625 0.29296875 0.29296875 q0 0.41015625 -0.0048828125 0.80078125 t-0.053711 0.80078 q-0.048828125 0.380859375 -0.0048828125 0.751953125 t0.043945 0.74219 l0 0.068359 l-0.039063 0.66406 q-0.01953125 0.21484375 -0.048828125 0.380859375 t-0.048828 0.27344 l-0.019531 0.039063 l-0.019531 0.068359 l0 0.0097656 q-0.029296875 0.1171875 -0.107421875 0.2392578125 t-0.1709 0.23438 t-0.2002 0.20996 t-0.19531 0.17578 q-0.166015625 0.146484375 -0.361328125 0.234375 t-0.41016 0.12695 t-0.43457 0.053711 t-0.4248 0.014648 q-0.361328125 0 -0.703125 -0.0830078125 t-0.66406 -0.27832 q-0.01953125 -0.01953125 -0.01953125 -0.029296875 q-0.029296875 -0.009765625 -0.048828125 -0.029296875 l-0.039063 -0.039063 q-0.029296875 -0.01953125 -0.048828125 -0.0341796875 t-0.039063 -0.043945 q-0.48828125 -0.517578125 -0.625 -1.2890625 q-0.05859375 -0.380859375 -0.078125 -0.7470703125 t0 -0.71777 q0.009765625 -0.087890625 0.01953125 -0.1708984375 t0.019531 -0.1709 q0.009765625 -0.1171875 0.0048828125 -0.224609375 t-0.014648 -0.20508 q-0.05859375 -0.771484375 -0.029296875 -1.826171875 q0.009765625 -0.205078125 0.25390625 -0.29296875 q0.1953125 -0.05859375 0.33203125 0.0390625 q0.078125 0.078125 0.078125 0.17578125 q0.009765625 0.13671875 0.0048828125 0.3515625 t-0.014648 0.49805 q0 0.244140625 -0.01953125 0.48828125 t-0.019531 0.47852 q0 0.29296875 -0.01953125 0.5712890625 t-0.019531 0.56152 q0 0.546875 0.17578125 1.23046875 q0.01953125 0.087890625 0.0439453125 0.1611328125 t0.043945 0.15137 q0.146484375 0.458984375 0.44921875 0.634765625 q0.224609375 0.13671875 0.83984375 0.17578125 q0.078125 0.009765625 0.15625 0.0244140625 t0.16602 0.014648 l0.0097656 0 l0.0097656 0 q0.46875 0 0.8203125 -0.166015625 t0.5957 -0.57617 q0.1953125 -0.33203125 0.1953125 -1.015625 l0 -0.21973 t0.0097656 -0.15137 q0.09765625 -0.869140625 -0.01953125 -1.81640625 q-0.01953125 -0.126953125 0.029296875 -0.46875 q0.01953125 -0.13671875 0.029296875 -0.244140625 t0.0097656 -0.18555 q0 -0.419921875 0.05859375 -0.56640625 q0.078125 -0.146484375 0.2734375 -0.146484375 z M19.619175 18.193375 q-0.13671875 0.15625 -0.44921875 0.13671875 l-0.48828 -0.029297 q-0.146484375 -0.009765625 -0.283203125 -0.01953125 t-0.2832 -0.0097656 q-0.29296875 -0.009765625 -0.4296875 0.126953125 q-0.107421875 0.126953125 -0.107421875 0.419921875 q0 0.13671875 0.0146484375 0.2685546875 t0.014648 0.26855 q0.009765625 0.322265625 0.0146484375 0.5615234375 t0.0048828 0.40527 q0 0.498046875 -0.05859375 0.99609375 q-0.029296875 0.234375 0 0.46875 t0.039063 0.45898 q0.009765625 0.25390625 0.0146484375 0.439453125 t0.0048828 0.3125 l0 0.13184 t-0.0097656 0.20996 q-0.01953125 0.263671875 -0.0390625 0.322265625 q-0.126953125 0.21484375 -0.33203125 0.15625 q-0.25390625 -0.048828125 -0.25390625 -0.37109375 q-0.009765625 -0.29296875 0.0146484375 -0.5908203125 t0.043945 -0.59082 q0.029296875 -0.341796875 -0.0048828125 -0.693359375 t-0.03418 -0.70313 q0 -0.322265625 0.0244140625 -0.6494140625 t0.03418 -0.64941 q0 -0.634765625 -0.205078125 -0.8984375 q-0.107421875 -0.13671875 -0.2587890625 -0.2099609375 t-0.33691 -0.092773 t-0.34668 -0.03418 t-0.31738 -0.014648 l-0.29785 0 t-0.27832 -0.058594 q-0.078125 -0.0390625 -0.09765625 -0.185546875 q-0.01953125 -0.107421875 0.029296875 -0.185546875 q0.068359375 -0.1171875 0.341796875 -0.146484375 q0.029296875 -0.009765625 0.107421875 -0.009765625 q0.41015625 -0.009765625 0.7958984375 0.0341796875 t0.7959 0.014648 q0.166015625 -0.009765625 0.3271484375 -0.029296875 t0.33691 -0.019531 l0.64941 0 t0.64941 -0.0097656 q0.166015625 0 0.2880859375 0.009765625 t0.20996 0.048828 q0.302734375 0.205078125 0.15625 0.41015625 z M25.9375125 18.085975 q0.205078125 0.205078125 0.3271484375 0.44921875 l0.24902 0.49805 q0.13671875 0.283203125 0.0830078125 0.5712890625 t-0.31738 0.56152 q-0.205078125 0.21484375 -0.68359375 0.341796875 q-0.17578125 0.048828125 -0.3759765625 0.1025390625 t-0.27832 0.22949 q-0.05859375 0.166015625 0.029296875 0.341796875 q0.09765625 0.185546875 0.15625 0.302734375 t0.097656 0.17578 q0.048828125 0.09765625 0.126953125 0.2197265625 t0.18555 0.27832 q0.224609375 0.3125 0.4736328125 0.5859375 t0.50293 0.52734 l0.048828 0.048828 q0.21484375 0.21484375 0.009765625 0.419921875 q-0.224609375 0.224609375 -0.4296875 0.009765625 l-0.29297 -0.29297 t-0.23438 -0.25391 q-0.234375 -0.29296875 -0.439453125 -0.615234375 q-0.146484375 -0.21484375 -0.2978515625 -0.4150390625 t-0.28809 -0.43457 q-0.390625 -0.703125 -0.966796875 -0.927734375 q-0.615234375 -0.224609375 -0.8984375 0.17578125 q-0.087890625 0.13671875 -0.087890625 0.302734375 l0 2.1191 l0 0.12695 q0 0.29296875 -0.302734375 0.302734375 q-0.302734375 -0.009765625 -0.302734375 -0.37109375 q0 -0.224609375 0.0146484375 -0.4638671875 t0.024414 -0.5127 q0.009765625 -0.185546875 -0.0048828125 -0.380859375 t-0.014648 -0.38086 t0.0097656 -0.37109 t0.0097656 -0.37109 q0.009765625 -0.439453125 -0.029296875 -0.908203125 q0 -0.322265625 0.0146484375 -0.654296875 t0.0048828 -0.67383 q-0.009765625 -0.17578125 -0.009765625 -0.3955078125 t0.058594 -0.39551 q0.17578125 -0.234375 0.830078125 -0.234375 l0.30273 0 q0.3515625 0 0.7080078125 0.029296875 t0.70801 0.0097656 q0.810546875 -0.0390625 1.279296875 0.322265625 z M23.1933125 20.195275 q0.37109375 0.009765625 0.654296875 0.009765625 t0.47852 -0.019531 q0.185546875 -0.01953125 0.4150390625 -0.048828125 t0.50293 -0.078125 q0.556640625 -0.1171875 0.72265625 -0.517578125 q0.068359375 -0.146484375 0.048828125 -0.322265625 t-0.1123 -0.32227 t-0.23438 -0.24902 t-0.30762 -0.17578 t-0.32227 -0.10254 q-0.41015625 -0.078125 -0.8154296875 -0.0634765625 t-0.81543 -0.0048828 q-0.078125 0 -0.1513671875 -0.0048828125 t-0.15137 -0.0048828 q-0.205078125 -0.009765625 -0.3125 0.107421875 q-0.087890625 0.09765625 -0.068359375 0.2734375 q0.009765625 0.048828125 0.009765625 0.205078125 q-0.009765625 0.146484375 -0.0341796875 0.283203125 t-0.03418 0.27344 q-0.05859375 0.380859375 0.087890625 0.56640625 q0.126953125 0.17578125 0.439453125 0.1953125 z M29.511723125 23.837895 q-0.3125 -0.048828125 -0.3125 -0.37109375 q-0.009765625 -0.52734375 -0.009765625 -1.03515625 l0 -1.0352 q0 -0.29296875 0.029296875 -0.5859375 q0.01953125 -0.21484375 0.01953125 -0.400390625 t-0.0097656 -0.3418 q-0.009765625 -0.09765625 -0.01953125 -0.234375 t-0.019531 -0.32227 q0 -0.09765625 0.0048828125 -0.234375 t0.014648 -0.32227 q0.009765625 -0.13671875 0.0146484375 -0.2392578125 t0.0048828 -0.18066 l0 -0.21484 l0 -0.0097656 l0 -0.078125 q-0.029296875 -0.244140625 0.009765625 -0.341796875 q0.029296875 -0.068359375 0.126953125 -0.13671875 q0.380859375 -0.1953125 0.46875 0.244140625 q0.078125 0.33203125 0.0927734375 0.6494140625 t-0.014648 0.62988 l0 0.0097656 q-0.029296875 0.302734375 -0.0146484375 0.60546875 t-0.014648 0.60547 q-0.029296875 0.263671875 -0.048828125 0.458984375 t-0.029297 0.33203 q-0.01953125 0.1953125 -0.01953125 0.4052734375 t0.0097656 0.44434 q0.009765625 0.048828125 0.009765625 0.1123046875 l0 0.15137 l0 0.3125 t0.0097656 0.30273 q0 0.107421875 0.0048828125 0.2001953125 t-0.0048828 0.19043 q0 0.1953125 -0.009765625 0.21484375 q-0.0390625 0.185546875 -0.29296875 0.21484375 z M37.2363625 18.193375 q-0.13671875 0.15625 -0.44921875 0.13671875 l-0.48828 -0.029297 q-0.146484375 -0.009765625 -0.283203125 -0.01953125 t-0.2832 -0.0097656 q-0.29296875 -0.009765625 -0.4296875 0.126953125 q-0.107421875 0.126953125 -0.107421875 0.419921875 q0 0.13671875 0.0146484375 0.2685546875 t0.014648 0.26855 q0.009765625 0.322265625 0.0146484375 0.5615234375 t0.0048828 0.40527 q0 0.498046875 -0.05859375 0.99609375 q-0.029296875 0.234375 0 0.46875 t0.039063 0.45898 q0.009765625 0.25390625 0.0146484375 0.439453125 t0.0048828 0.3125 l0 0.13184 t-0.0097656 0.20996 q-0.01953125 0.263671875 -0.0390625 0.322265625 q-0.126953125 0.21484375 -0.33203125 0.15625 q-0.25390625 -0.048828125 -0.25390625 -0.37109375 q-0.009765625 -0.29296875 0.0146484375 -0.5908203125 t0.043945 -0.59082 q0.029296875 -0.341796875 -0.0048828125 -0.693359375 t-0.03418 -0.70313 q0 -0.322265625 0.0244140625 -0.6494140625 t0.03418 -0.64941 q0 -0.634765625 -0.205078125 -0.8984375 q-0.107421875 -0.13671875 -0.2587890625 -0.2099609375 t-0.33691 -0.092773 t-0.34668 -0.03418 t-0.31738 -0.014648 l-0.29785 0 t-0.27832 -0.058594 q-0.078125 -0.0390625 -0.09765625 -0.185546875 q-0.01953125 -0.107421875 0.029296875 -0.185546875 q0.068359375 -0.1171875 0.341796875 -0.146484375 q0.029296875 -0.009765625 0.107421875 -0.009765625 q0.41015625 -0.009765625 0.7958984375 0.0341796875 t0.7959 0.014648 q0.166015625 -0.009765625 0.3271484375 -0.029296875 t0.33691 -0.019531 l0.64941 0 t0.64941 -0.0097656 q0.166015625 0 0.2880859375 0.009765625 t0.20996 0.048828 q0.302734375 0.205078125 0.15625 0.41015625 z M40.00977 23.837895 q-0.3125 -0.048828125 -0.3125 -0.37109375 q-0.009765625 -0.52734375 -0.009765625 -1.03515625 l0 -1.0352 q0 -0.29296875 0.029296875 -0.5859375 q0.01953125 -0.21484375 0.01953125 -0.400390625 t-0.0097656 -0.3418 q-0.009765625 -0.09765625 -0.01953125 -0.234375 t-0.019531 -0.32227 q0 -0.09765625 0.0048828125 -0.234375 t0.014648 -0.32227 q0.009765625 -0.13671875 0.0146484375 -0.2392578125 t0.0048828 -0.18066 l0 -0.21484 l0 -0.0097656 l0 -0.078125 q-0.029296875 -0.244140625 0.009765625 -0.341796875 q0.029296875 -0.068359375 0.126953125 -0.13671875 q0.380859375 -0.1953125 0.46875 0.244140625 q0.078125 0.33203125 0.0927734375 0.6494140625 t-0.014648 0.62988 l0 0.0097656 q-0.029296875 0.302734375 -0.0146484375 0.60546875 t-0.014648 0.60547 q-0.029296875 0.263671875 -0.048828125 0.458984375 t-0.029297 0.33203 q-0.01953125 0.1953125 -0.01953125 0.4052734375 t0.0097656 0.44434 q0.009765625 0.048828125 0.009765625 0.1123046875 l0 0.15137 l0 0.3125 t0.0097656 0.30273 q0 0.107421875 0.0048828125 0.2001953125 t-0.0048828 0.19043 q0 0.1953125 -0.009765625 0.21484375 q-0.0390625 0.185546875 -0.29296875 0.21484375 z M45.048809375 23.818355 q-0.1953125 -0.05859375 -0.3955078125 -0.1513671875 t-0.39063 -0.21484 t-0.35645 -0.27344 t-0.2832 -0.32715 q-0.15625 -0.244140625 -0.224609375 -0.5029296875 t-0.19531 -0.53223 q-0.09765625 -0.21484375 -0.107421875 -0.46875 q-0.009765625 -0.1171875 -0.0244140625 -0.2392578125 t-0.014648 -0.23926 q-0.009765625 -0.1171875 -0.0146484375 -0.205078125 t-0.0048828 -0.14648 q0 -0.185546875 0.0244140625 -0.3857421875 t0.073242 -0.41504 q0.009765625 -0.068359375 0.05859375 -0.17578125 q0.09765625 -0.29296875 0.2490234375 -0.5517578125 t0.34668 -0.4834 q0.380859375 -0.4296875 1.064453125 -0.76171875 q0.3125 -0.13671875 0.654296875 -0.126953125 q0.21484375 0.01953125 0.4296875 0.05859375 q0.17578125 0.029296875 0.3076171875 0.0439453125 t0.22949 0.03418 q0.751953125 0.087890625 1.328125 0.6640625 q0.126953125 0.126953125 0.2392578125 0.2783203125 t0.21973 0.32715 l0.048828 0.078125 q0.009765625 0.029296875 0.01953125 0.048828125 l0.019531 0.039063 q0.166015625 0.390625 0.302734375 0.9765625 q0.126953125 0.546875 0.0390625 1.005859375 q-0.05859375 0.263671875 -0.146484375 0.5078125 t-0.15625 0.48828 q-0.380859375 1.30859375 -1.71875 1.650390625 l-0.078125 0.019531 q-0.078125 0.01953125 -0.1953125 0.0390625 t-0.27344 0.039063 q-0.25390625 0.029296875 -0.5224609375 0.009765625 t-0.55176 -0.10742 z M46.035109375 18.232375 q-0.52734375 0 -0.9521484375 0.126953125 t-0.7666 0.46875 q-0.46875 0.46875 -0.595703125 1.040039063 t0.0097656 1.2744 l0.087891 0.47852 q0.01953125 0.13671875 0.0390625 0.2197265625 t0.029297 0.10254 q0.05859375 0.21484375 0.234375 0.41015625 t0.32227 0.3418 q0.078125 0.087890625 0.15625 0.1708984375 t0.16602 0.15137 q0.146484375 0.126953125 0.48828125 0.234375 l0.0097656 0 q0.185546875 0.048828125 0.4150390625 0.0341796875 t0.5127 -0.083008 q0.13671875 -0.0390625 0.2783203125 -0.0537109375 t0.28809 -0.053711 q0.361328125 -0.087890625 0.60546875 -0.390625 l0.0097656 0 l0 -0.0097656 q0.15625 -0.185546875 0.263671875 -0.46875 q0.09765625 -0.283203125 0.146484375 -0.361328125 q0.48828125 -0.95703125 0.146484375 -2.0703125 l-0.0097656 -0.0097656 q-0.0390625 -0.107421875 -0.078125 -0.205078125 t-0.10742 -0.19531 q-0.380859375 -0.576171875 -0.908203125 -0.830078125 q-0.01953125 -0.009765625 -0.087890625 -0.048828125 t-0.19531 -0.11719 q-0.17578125 -0.107421875 -0.498046875 -0.15625 l-0.0097656 0 z M51.86523375 23.632815 q-0.0390625 0.17578125 -0.302734375 0.205078125 q-0.2734375 -0.009765625 -0.2734375 -0.302734375 q0 -0.76171875 -0.0341796875 -1.538085938 t0.043945 -1.5381 l0 -0.0097656 q0 -0.224609375 0.0048828125 -0.439453125 t-0.014648 -0.41992 l-0.078125 -0.74219 q-0.029296875 -0.3125 0.09765625 -0.673828125 q0.09765625 -0.25390625 0.263671875 -0.302734375 q0.13671875 -0.029296875 0.283203125 0.13671875 q0.13671875 0.146484375 0.205078125 0.25390625 q0.126953125 0.185546875 0.2587890625 0.33203125 t0.25879 0.27344 q0.107421875 0.126953125 0.2197265625 0.2197265625 t0.21973 0.20996 q0.09765625 0.09765625 0.21484375 0.2490234375 t0.25391 0.35645 l0.42969 0.66406 q0.048828125 0.068359375 0.1025390625 0.15625 t0.13184 0.20508 l0.0097656 0.0097656 q0.205078125 0.2734375 0.4296875 0.517578125 q0.107421875 0.1171875 0.21484375 0.2197265625 t0.22461 0.20996 q0.107421875 0.126953125 0.25390625 0.078125 q0.224609375 -0.05859375 0.21484375 -0.44921875 q0 -0.09765625 -0.0146484375 -0.205078125 t-0.014648 -0.21484 q-0.009765625 -0.078125 -0.01953125 -0.1513671875 t-0.0097656 -0.16113 q0 -0.0390625 -0.0048828125 -0.087890625 t-0.0048828 -0.10742 q0.0390625 -0.859375 -0.05859375 -1.6015625 q-0.009765625 -0.048828125 -0.009765625 -0.1611328125 t0.019531 -0.28809 q0.009765625 -0.21484375 0.05859375 -0.458984375 q0.029296875 -0.3515625 0.3125 -0.3515625 q0.3125 0 0.3125 0.37109375 q0.009765625 0.302734375 0.0244140625 0.6103515625 t0.014648 0.61035 q0.009765625 0.44921875 -0.01953125 0.8984375 t-0.0097656 0.89844 q0.01953125 0.302734375 0.0146484375 0.595703125 t-0.014648 0.58594 q0 0.166015625 0.0048828125 0.3271484375 t0.0048828 0.30762 l0 0.39063 q-0.009765625 0.05859375 -0.0146484375 0.1171875 t-0.0048828 0.10742 q-0.009765625 0.009765625 -0.009765625 0.01953125 t-0.0097656 0.0097656 q-0.107421875 0.146484375 -0.33203125 0.146484375 q-0.263671875 0.01953125 -0.400390625 -0.166015625 q-0.146484375 -0.185546875 -0.2685546875 -0.400390625 t-0.26855 -0.41992 q-0.17578125 -0.234375 -0.3857421875 -0.5029296875 t-0.46387 -0.57129 q-0.09765625 -0.107421875 -0.2734375 -0.390625 l-0.3418 -0.54688 q-0.126953125 -0.1953125 -0.25390625 -0.3955078125 t-0.26367 -0.38574 q-0.05859375 -0.068359375 -0.126953125 -0.1513671875 t-0.14648 -0.1416 t-0.17578 -0.087891 t-0.19531 0 q-0.263671875 0.078125 -0.244140625 0.537109375 q0.009765625 0.33203125 0.0146484375 0.625 t0.024414 0.54688 q0.01953125 0.205078125 -0.0048828125 0.41015625 t-0.024414 0.40039 l0 0.76172 q0 0.244140625 -0.0146484375 0.439453125 t-0.03418 0.35156 z"/></g><defs id="SvgjsDefs1002"/><g id="SvgjsG1010" transform="translate(0, 0) scale(2.192678587777274)" rel="mainfill" name="outline_container" xmlns:name="outlineContainer_mainfill" fill="#ffffff"><g xmlns="http://www.w3.org/2000/svg" fill=""><path d="M57.9 108.7l.2 5.4h.3l-.2-5.4zM85.6 99l3.1 4.4.3-.2-3.1-4.4zM65.8 107.8l1 5.3h.3l-1-5.3zM63.8 108.2l.8 5.4h.3l-.8-5.4zM59.8 108.6l.4 5.4h.3l-.4-5.4zM20.3 20.5l-3.8-3.8-.2.2 3.7 3.8zM17.4 90.5l-4 3.5.2.2 4-3.5zM18.9 22L15 18.3l-.2.2 3.9 3.7zM17.6 23.5l-4-3.5-.2.2 4 3.5zM67.7 107.4l1.2 5.3h.3l-1.2-5.4zM80.6 102.3l2.6 4.7.3-.2-2.6-4.7zM82.3 101.3l2.8 4.6.3-.2-2.8-4.6zM84 100.2l3 4.5.3-.2-3-4.5zM78.9 103.2l2.4 4.8h.3l-2.4-4.8zM71.5 106.3l1.6 5.2h.3l-1.6-5.2zM69.6 106.9l1.4 5.2h.3l-1.4-5.2zM77.1 104.1l2.2 4.9h.3l-2.2-5zM73.4 105.6l1.8 5.1h.3l-1.8-5.1zM75.3 104.9l2 5h.3l-2-5zM21.7 19.1l-3.6-4-.2.2 3.6 4zM46.2 6.4l-1-5.3h-.3l1 5.3zM44.2 6.9L43 1.6h-.3l1.2 5.3zM42.3 7.4l-1.4-5.3h-.3L42 7.4zM40.4 7.9l-1.6-5.1h-.3L40.1 8zM48.1 6.1L47.3.7H47l.8 5.4zM50.1 5.8L49.5.4h-.3l.6 5.4zM54.1 5.5L53.9.1h-.3l.2 5.4zM55.7 0v5.4h.3V0h-.3zM52.1 5.6L51.7.2h-.3l.4 5.4zM29.6 13l-2.8-4.6-.3.2 2.8 4.6zM26.3 15.3l-3.1-4.4-.3.2 3.1 4.4zM27.9 14.1L25 9.6l-.3.2 3 4.5zM24.7 16.5l-3.3-4.2-.2.2 3.3 4.2zM23.2 17.8l-3.5-4.1-.2.2L23 18zM33.1 11l-2.4-4.8h-.3l2.4 4.8zM36.7 9.3l-2-5h-.3l2 5zM34.9 10.2l-2.3-5h-.3l2.2 4.9zM38.5 8.6l-1.8-5.1h-.3l1.9 5.1zM31.3 12l-2.6-4.7-.3.2 2.6 4.7zM106.5 61v.3l5.3.4v-.3zM105.7 47.1l5.2-1.1v-.3l-5.2 1.1zM106 49.1l5.3-.9v-.3l-5.3.9zM106.3 51.1l5.3-.6v-.3l-5.3.6zM106.5 53.1l5.3-.4v-.3l-5.3.4zM103.6 39.3l5-1.9v-.3l-5 1.9zM106.6 55.1l5.3-.2v-.3l-5.3.2zM102.8 37.4l4.9-2.1V35l-4.9 2.1zM87.2 97.8l3.3 4.3.2-.2-3.3-4.3zM104.8 43.1l5.1-1.5v-.3l-5.1 1.5zM104.2 41.2l5.1-1.7v-.3l-5.1 1.7zM101.9 78.9l4.8 2.3v-.3l-4.8-2.3zM102.7 77l4.9 2.1v-.3l-4.9-2.1zM103.5 75.1l5 1.9v-.3l-5-1.9zM101.1 80.7l4.7 2.5v-.3l-4.7-2.5zM106.7 57.1h5.3v-.3h-5.3zM106.6 59.3l5.3.2v-.3l-5.3-.2zM98 86l4.4 3 .2-.3-4.4-3zM100.1 82.5l4.6 2.7.2-.3-4.6-2.7zM99.1 84.3l4.5 2.8.2-.3-4.5-2.8zM105.3 45.1l5.2-1.3v-.3l-5.2 1.3zM95.6 24.9l.2.2 4.2-3.4-.2-.2zM97 26.8l4.3-3.2-.2-.3-4.3 3.2zM94.4 90.8l4 3.5.2-.2-4-3.5zM106.3 63v.3l5.3.6v-.3zM94.6 23.6l4-3.5-.2-.2-4 3.5zM90.3 95.2l3.6 4 .2-.2-3.6-4zM88.8 96.5l3.4 4.1.2-.2-3.4-4.1zM91.7 93.8l3.8 3.8.2-.2-3.8-3.8zM93.1 92.3L97 96l.2-.2-3.9-3.7zM98.2 28.5l4.4-3-.2-.3-4.4 3zM99.2 30.2l4.5-2.8-.2-.3-4.5 2.8zM102 35.5l4.8-2.3V33l-4.8 2.3zM100.2 31.9l4.6-2.7-.2-.3-4.6 2.7zM101.2 33.7l4.7-2.5V31l-4.9 2.4zM104.7 71.3l5.1 1.5v-.3l-5-1.5zM105.7 67v.3l5.2 1.1v-.3zM105.3 69v.3l5.2 1.3v-.3zM104.2 72.9v.3l5.1 1.7v-.3zM106.1 65v.3l5.3.8v-.3zM61.8 108.4l.6 5.4h.3l-.6-5.4zM13.9 28.3l-4.4-3-.2.3 4.4 3zM6.7 45.3V45l-5.1-1.3v.3zM6.3 47.2v-.3l-5.2-1v.3zM11.9 31.8l-4.7-2.7-.2.3 4.7 2.6zM12.9 30l-4.6-2.8-.2.3 4.5 2.8zM5.4 55.3V55l-5.3-.2v.3zM5.9 49.2v-.3l-5.2-.8v.3zM5.5 53.3V53l-5.3-.5v.3zM10.9 33.6l-4.7-2.5v.3l4.7 2.5zM5.3 57.1H0v.2h5.3zM5.7 51.3V51l-5.3-.7v.3zM16.3 25l-4.2-3.4-.2.2 4.2 3.4zM14.9 26.9l.2-.3-4.3-3.2-.2.3zM56.2 114.2v-5.4h-.3v5.4h.3zM10 35.4l-4.8-2.3v.3l4.8 2.3zM53.9 108.7l-.2 5.4h.3l.2-5.4zM9.2 37.2l-4.9-2v.3l4.9 2.1zM8.5 39.1l-5-1.9v.3l5 1.9zM7.3 43l-5.2-1.5v.3l5.1 1.5zM7.8 41.1l-5-1.7v.3l5.1 1.7zM10.8 80.4l-4.7 2.5v.3l4.7-2.5zM9.9 78.6l-4.8 2.3v.3l4.8-2.3zM13.8 85.7l-4.4 3 .2.3 4.4-3zM12.7 84l-4.5 2.8.2.3 4.5-2.8zM51.9 108.6l-.4 5.4h.3l.4-5.4zM11.7 82.2l-4.6 2.7.2.3 4.6-2.7zM14.9 87.4l-4.3 3.2.2.3 4.3-3.2zM5.4 59l-5.3.2v.3l5.3-.2zM95.7 89.2l4.2 3.4.2-.2-4.2-3.4zM16.3 89.2l-.2-.2-4.1 3.3.2.2zM97.1 87.4l-.2.3 4.3 3.2.2-.3zM5.9 65.1l-5.3.8v.3l5.4-.8zM5.7 63.1l-5.3.6v.3l5.3-.6zM5.5 61.1l-5.3.4v.3l5.3-.4zM9.1 76.8l-4.9 2.1v.3l4.9-2.1zM6.3 67.1l-5.2 1v.3l5.2-1.1zM7.8 73l-5.1 1.7v.3l5.1-1.7zM6.7 69.1l-5.2 1.2v.3l5.2-1.3zM8.4 74.9l-5 1.9v.3l5-1.9zM7.2 71l-5.1 1.5v.3l5.1-1.5zM73.6 8.7l1.8-5.1h-.3l-1.8 4.9zM71.7 8l1.6-5.2H73l-1.6 5.1zM93.3 22.1l3.9-3.7-.2-.2-4 3.7zM69.8 7.4l1.4-5.2h-.3l-1.4 5.1zM75.5 9.4l2-5h-.3l-2 5zM65.9 6.4l1-5.3h-.3l-1 5.3zM49.9 108.4l-.6 5.4h.3l.6-5.4zM64 6.1l.8-5.4h-.3L63.7 6zM62 5.8l.6-5.4h-.3l-.6 5.4zM77.3 10.2l2.2-4.9h-.3L77 10.1zM60 5.6l.4-5.4h-.3l-.4 5.4zM87.4 16.6l3.3-4.3-.2-.2-3.3 4.3zM90.4 19.2l3.6-4-.2-.2-3.6 4zM89 17.9l3.4-4.1-.2-.2-3.4 4.1zM91.9 20.6l3.7-3.8-.2-.2-3.7 3.8zM82.5 13.1l2.8-4.6-.3-.2-2.8 4.6zM85.8 15.4L89 11l-.3-.2-3.1 4.4zM79.1 11.1l2.4-4.8h-.3L78.8 11zM80.8 12.1l2.6-4.7-.3-.2-2.6 4.7zM84.2 14.2l3-4.5-.3-.2L84 14zM67.9 6.9l1.2-5.3h-.3l-1.2 5.2zM40.2 106.2l-1.6 5.2h.3l1.6-5.2zM36.5 104.8l-2 5h.3l2-5zM32.9 103.1l-2.4 4.8h.3l2.4-4.8zM34.7 104l-2.2 4.9h.3L35 104zM38.3 105.5l-1.8 5.1h.3l1.8-5.1zM47.9 108.1l-.8 5.4h.3l.8-5.4zM46 107.8l-1 5.3h.3l1-5.3zM42.1 106.8l-1.4 5.2h.3l1.4-5.2zM44.1 107.3l-1.2 5.3h.3l1.2-5.3zM20.1 93.5l-3.8 3.8.2.2 3.8-3.8zM21.5 94.9l-3.6 4 .2.2 3.6-4zM58.1 5.5l.2-5.4H58l-.2 5.4zM23 96.3l-3.4 4.1.2.2 3.4-4.1zM18.7 92.1l-3.9 3.7.2.2 3.9-3.7zM31.1 102.1l-2.6 4.7.3.2 2.6-4.7zM27.7 100l-3 4.5.3.2 3-4.5zM24.5 97.6l-3.3 4.2.2.2 3.3-4.3zM29.4 101.1l-2.8 4.6.3.2 2.8-4.6zM26.1 98.8l-3.1 4.4.3.2 3.1-4.4z"/></g></g>
			</g>
		</svg>
    